<svg width="12" height="12" viewBox="0 0 12 12" fill="none" xmlns="http://www.w3.org/2000/svg">
<path id="Vector - 1" fill-rule="evenodd" clip-rule="evenodd" d="M1.48283 2.6173C1.49163 2.64237 1.5401 2.74867 1.793 2.91203C2.09933 3.10993 2.58307 3.30483 3.2239 3.45783C4.00023 3.6432 4.95707 3.75517 6 3.75517C7.04293 3.75517 7.99977 3.6432 8.7761 3.45783C9.41693 3.30483 9.90067 3.10993 10.207 2.91203C10.4599 2.74867 10.5084 2.64237 10.5172 2.6173C10.5096 2.59587 10.4778 2.53243 10.3545 2.43103C10.1755 2.28387 9.87627 2.12157 9.44767 1.9725C8.59667 1.6765 7.37777 1.48123 6 1.48123C4.62223 1.48123 3.4033 1.6765 2.55233 1.9725C2.12373 2.12157 1.82447 2.28387 1.6455 2.43103C1.52223 2.53243 1.49043 2.59587 1.48283 2.6173ZM10.5188 4.26257C10.1059 4.46417 9.61673 4.62797 9.0857 4.75473C8.19453 4.9675 7.13243 5.0885 6 5.0885C4.86757 5.0885 3.80547 4.9675 2.9143 4.75473C2.38327 4.62797 1.89413 4.46417 1.4812 4.26257V9.37583C1.48383 9.38483 1.51423 9.49557 1.793 9.67567C2.09933 9.87357 2.58307 10.0685 3.2239 10.2215C4.00023 10.4068 4.95707 10.5188 6 10.5188C7.04293 10.5188 7.99977 10.4068 8.7761 10.2215C9.41693 10.0685 9.90067 9.87357 10.207 9.67567C10.4858 9.49557 10.5162 9.38487 10.5188 9.37583V4.26257ZM11.8521 2.6182V9.38183C11.8521 10.0359 11.386 10.5014 10.9305 10.7956C10.4499 11.1061 9.8064 11.3463 9.0857 11.5184C8.19453 11.7311 7.13243 11.8521 6 11.8521C4.86757 11.8521 3.80547 11.7311 2.9143 11.5184C2.1936 11.3463 1.55007 11.1061 1.06949 10.7956C0.614017 10.5014 0.147883 10.0359 0.147883 9.38183V2.6182C0.147883 2.08947 0.45741 1.6818 0.798603 1.4012C1.14442 1.11683 1.60457 0.89047 2.11433 0.71316C3.1401 0.356363 4.51393 0.147887 6 0.147887C7.48607 0.147887 8.8599 0.356363 9.88567 0.71316C10.3954 0.89047 10.8556 1.11683 11.2014 1.4012C11.5426 1.6818 11.8521 2.08947 11.8521 2.6182Z" fill="black"/>
</svg>
