<svg width="22" height="19" viewBox="0 0 22 19" fill="none" xmlns="http://www.w3.org/2000/svg">
<path id="Vector - 0" fill-rule="evenodd" clip-rule="evenodd" d="M21.75 1C21.75 0.585786 21.4142 0.25 21 0.25C16.8675 0.25 12.6272 4.91031 10.2722 7.99656C8.56661 7.47421 6.71436 7.7918 5.28021 8.85248C3.84605 9.91317 2.99999 11.5912 3 13.375C3 16.27 1.16813 17.5684 1.08094 17.6284C0.807815 17.8129 0.687086 18.154 0.783384 18.4692C0.879682 18.7843 1.17044 18.9997 1.5 19H8.625C10.4088 19 12.0868 18.1539 13.1475 16.7198C14.2082 15.2856 14.5258 13.4334 14.0034 11.7278C17.0906 9.37281 21.75 5.1325 21.75 1ZM8.625 17.5H3.24656C3.87937 16.6009 4.5 15.2425 4.5 13.375C4.5 11.0968 6.34683 9.25 8.625 9.25C10.9032 9.25 12.75 11.0968 12.75 13.375C12.75 15.6532 10.9032 17.5 8.625 17.5ZM11.6644 8.64531C11.9856 8.22906 12.3009 7.83687 12.6103 7.46875C13.3676 7.98035 14.0196 8.63244 14.5312 9.38969C14.1625 9.69844 13.7703 10.0138 13.3547 10.3356C12.9176 9.65858 12.3414 9.08236 11.6644 8.64531ZM15.6675 8.39406C15.1013 7.59512 14.4039 6.89778 13.605 6.33156C16.5844 3.09437 18.8316 2.11281 20.1581 1.84C19.8909 3.1675 18.9047 5.41469 15.6675 8.39406Z" fill="black"/>
</svg>
