<svg width="22" height="21" viewBox="0 0 22 21" fill="none" xmlns="http://www.w3.org/2000/svg">
<path id="Vector - 0" fill-rule="evenodd" clip-rule="evenodd" d="M20.9844 9.72313L16.7563 13.4131L18.0228 18.9069C18.1598 19.494 17.932 20.1062 17.4444 20.4608C16.9568 20.8155 16.3042 20.8437 15.7878 20.5325L10.9963 17.6262L6.215 20.5325C5.69859 20.8437 5.04603 20.8155 4.55843 20.4608C4.07083 20.1062 3.84298 19.494 3.98 18.9069L5.24469 13.4187L1.01562 9.72313C0.558291 9.32869 0.382108 8.69846 0.568599 8.12404C0.75509 7.54962 1.26788 7.14307 1.86969 7.0925L7.44406 6.60969L9.62 1.41969C9.85235 0.862832 10.3966 0.500187 11 0.500187C11.6034 0.500187 12.1476 0.862832 12.38 1.41969L14.5625 6.60969L20.135 7.0925C20.7368 7.14307 21.2496 7.54962 21.4361 8.12404C21.6226 8.69846 21.4464 9.32869 20.9891 9.72313H20.9844Z" fill="black"/>
</svg>
